# xmcd
# 
# Track frame offsets:
#     150
#     17435
#     33386
#     56156
#     80345
#     104177
#     120539
#     149665
#     167872
#     190097
#     213617
#     229840
#     256411
#     275813
# 
# Disc length: 3939
# 
# Revision: 1
# Processed by: cddbd v1.5.2PL0 Copyright (c) Steve Scherf et al.
# Submitted via: fre:ac v1.0.17
# 
DISCID=d40f610e
DTITLE=three wise men - Jukebox
DYEAR=2011
DGENRE=Jazz
TTITLE0=Tiger Rag
TTITLE1=Just a Gigolo\t
TTITLE2=The Sheik of Araby\t
TTITLE3=Petite Fleur\t
TTITLE4=Sweet Georgia Brown\t
TTITLE5=Take Five
TTITLE6=Adagio from Sonate Pathètique\t
TTITLE7=Stranger on the Shore
TTITLE8=Ice Cream
TTITLE9=Moolight Serenade\t
TTITLE10=Jukebox\t
TTITLE11=St Louis Blues\t
TTITLE12=As Times Goes By\t
TTITLE13=When the Saints Go Marchin' in\t
EXTD=YEAR: 2011
EXTT0=
EXTT1=
EXTT2=
EXTT3=
EXTT4=
EXTT5=
EXTT6=
EXTT7=
EXTT8=
EXTT9=
EXTT10=
EXTT11=
EXTT12=
EXTT13=
PLAYORDER=
